<svg xmlns="http://www.w3.org/2000/svg" width="360" height="392" fill="none" viewBox="0 0 360 392"><path fill="red" stroke="red" d="M70.5 338.016C135 349.516 147 349.516 147 391.016H258.5L266 313.016V391.016H322C322 391.016 309.51 344.782 313 304.016C317.872 247.1 365.088 223.516 358.5 147.016C354.268 97.868 342.933 63.1443 305.5 31.016C265.418 -3.38605 200 -1.52429 173.5 1.51596C147 4.55622 93.3148 20.2529 57.5 54.516C12.9579 97.1283 0 200.016 0 200.016L25 147.016C25 147.016 17.5 179.709 17.5 200.016C17.5 220.323 25 251.016 25 251.016C25 214.516 32.5 199.016 50 163.016C50 163.016 69 210.016 57.5 241.016C52.1138 255.535 32.5 269.016 32.5 269.016C47.3399 295.962 50 314.516 70.5 338.016Z"/></svg>